<svg xmlns="http://www.w3.org/2000/svg" xmlns:xlink="http://www.w3.org/1999/xlink" version="1.1" x="0px" y="0px" viewBox="0 0 100 100" enable-background="new 0 0 100 100" xml:space="preserve"><g><g><path d="M21.314,73.501c-4-2.021-5.6-6.9-3.583-10.894c2.007-3.979,6.891-5.586,10.896-3.558c3.986,2.035,5.584,6.905,3.576,10.89    C30.18,73.925,25.294,75.526,21.314,73.501z"/><path d="M35.175,65.079c0,0-0.103-6.958,7.132-11.128c2.183-1.264,8.307-3.022,16.772-1.775    c11.205,1.645,17.829,8.872,19.318,10.626c2.867,2.684,3.537,7.096,1.378,10.551c-0.422,0.664-0.938,1.22-1.496,1.721    c-0.065,0.089-0.087,0.196-0.163,0.274L62.922,90.017h17.843c2.463,0.002,4.463,1.996,4.463,4.46c0,2.472-2,4.467-4.463,4.467    H52.781c-1.771,0-3.364-0.98-4.236-2.842c-1.113-2.373,0.378-5.136,0.891-5.953l12.269-19.718c0,0-3.501-1.236-6.626-1.822    c-5.661-0.878-11.231-0.391-11.231-0.391V94.35c0,2.394-1.937,4.329-4.327,4.329c-2.401,0-4.337-1.936-4.337-4.329V65.08    L35.175,65.079z"/></g><path d="M22.754,84.553l0.005,0.001c0,0,1.789,2.088,1.792,3.477c0.001,1.392-0.983,1.973-1.781,1.971l-0.006,0.002   c-0.796,0-1.73-0.572-1.736-1.965C21.027,86.65,22.754,84.553,22.754,84.553z"/><path d="M27.7,78.858l0.005,0.001c0,0,1.789,2.088,1.792,3.476c0.001,1.393-0.983,1.973-1.782,1.971l-0.006,0.002   c-0.795,0.001-1.73-0.571-1.736-1.964C25.973,80.956,27.7,78.858,27.7,78.858z"/></g><g><path d="M70.48,45.745l2.641-2.64L60.375,30.358c1.405-1.75,2.366-3.864,2.738-6.175h8.055v-3.736h-7.983   c-0.294-2.378-1.222-4.558-2.608-6.375l5.623-5.622l-2.642-2.64l-5.638,5.638c-1.822-1.353-3.994-2.254-6.36-2.524V0.84h-3.735   v8.191c-2.265,0.384-4.337,1.336-6.058,2.718l-5.94-5.938l-2.641,2.64l6.024,6.024c-1.22,1.733-2.032,3.769-2.306,5.972h-8.688   v3.736h8.76c0.343,2.138,1.196,4.103,2.435,5.772L27.257,42.109l2.641,2.64l12.137-12.137c1.667,1.27,3.638,2.153,5.789,2.518   v12.474h3.735V35.238c2.248-0.258,4.326-1.082,6.089-2.323L70.48,45.745z M40.528,22.081c0-5.247,4.268-9.515,9.515-9.515   c5.247,0,9.519,4.268,9.519,9.515s-4.271,9.516-9.519,9.516C44.796,31.596,40.528,27.328,40.528,22.081z"/></g></svg>