<svg xmlns="http://www.w3.org/2000/svg" xmlns:xlink="http://www.w3.org/1999/xlink" version="1.1" x="0px" y="0px" viewBox="0 0 100 100" enable-background="new 0 0 100 100" xml:space="preserve"><g><path d="M75.842,31.485L63.555,19.057c2.25-0.536,3.909-2.329,3.909-4.452V9.615C67.464,7.07,65.082,5,62.154,5H37.846   c-2.928,0-5.31,2.07-5.31,4.615v4.991c0,2.123,1.659,3.916,3.909,4.452L24.158,31.485c-0.182,0.183-0.283,0.43-0.283,0.688v59.298   c0,0.442,0.297,0.83,0.724,0.945C24.744,92.455,34.46,95,49.405,95c7.508,0,16.339-0.643,25.934-2.569   c0.457-0.092,0.785-0.493,0.785-0.959V32.173C76.124,31.916,76.023,31.669,75.842,31.485z M74.167,90.667   c-24.936,4.846-44.405,0.94-48.335,0.034V32.575l13.49-13.645c0.278-0.281,0.359-0.701,0.207-1.065   c-0.152-0.365-0.508-0.602-0.903-0.602h-0.782c-1.849,0-3.353-1.193-3.353-2.658V9.615c0-1.465,1.504-2.658,3.353-2.658h24.309   c1.849,0,3.353,1.193,3.353,2.658v4.991c0,1.465-1.504,2.658-3.353,2.658h-0.782c-0.395,0-0.751,0.237-0.903,0.602   c-0.152,0.364-0.071,0.784,0.207,1.065l13.49,13.645V90.667z"/><path d="M62.691,50.277c-0.14-0.331-0.449-0.559-0.806-0.593L49.322,48.46l3.383-10.471c0.147-0.454-0.054-0.947-0.478-1.168   c-0.423-0.222-0.943-0.105-1.232,0.275L38.057,54.091c-0.226,0.296-0.263,0.694-0.098,1.027c0.165,0.333,0.505,0.544,0.877,0.544   h11.388l-9.349,19.621c-0.214,0.449-0.057,0.986,0.363,1.25c0.161,0.1,0.341,0.149,0.519,0.149c0.289,0,0.573-0.128,0.765-0.367   l20.033-25.046C62.778,50.989,62.832,50.608,62.691,50.277z M46.285,68.477l6.372-13.373c0.145-0.303,0.124-0.659-0.055-0.943   c-0.18-0.284-0.492-0.456-0.827-0.456H40.81l8.271-10.865l-1.994,6.175c-0.092,0.282-0.05,0.59,0.113,0.838   c0.162,0.248,0.428,0.408,0.723,0.437l11.976,1.167L46.285,68.477z"/><path d="M43.163,17.154c0.228,0.146,0.53,0.08,0.676-0.147c0.071-0.109,1.769-2.677,5.326-2.677c3.558,0,5.256,2.568,5.327,2.677   c0.094,0.145,0.251,0.225,0.413,0.225c0.09,0,0.182-0.025,0.263-0.077c0.227-0.146,0.293-0.447,0.149-0.675   c-0.082-0.128-2.043-3.128-6.152-3.128c-4.108,0-6.069,3-6.151,3.128C42.87,16.707,42.936,17.008,43.163,17.154z"/><path d="M55.811,19.296c-0.191,0.191-0.193,0.5-0.002,0.692L68.33,32.602c0.096,0.097,0.221,0.145,0.347,0.145   c0.124,0,0.249-0.047,0.345-0.142c0.191-0.191,0.193-0.5,0.002-0.692L56.502,19.299C56.313,19.107,56.004,19.105,55.811,19.296z"/><path d="M68.396,77.281v9.81c0,0.312-0.14,0.596-0.43,0.87c-2.576,2.445-14.652,2.376-19.088,2.145   c-0.266-0.017-0.5,0.193-0.514,0.463c-0.014,0.27,0.193,0.5,0.462,0.515c0.226,0.011,2.159,0.108,4.756,0.108   c5.114,0,12.797-0.376,15.057-2.521c0.487-0.463,0.735-0.994,0.735-1.58v-9.81c0-0.27-0.219-0.489-0.489-0.489   S68.396,77.011,68.396,77.281z"/></g></svg>