<svg xmlns="http://www.w3.org/2000/svg" xmlns:xlink="http://www.w3.org/1999/xlink" version="1.1" x="0px" y="0px" viewBox="0 0 100 100" enable-background="new 0 0 98 98" xml:space="preserve"><g><path d="M47.6745,48.8258c0.04-0.4099,0.06-0.8199,0.06-1.24c0-0.27-0.01-0.55-0.03-0.8201l-1.99,0.1301   c0.0099,0.23,0.02,0.46,0.02,0.6899c0,0.3501-0.02,0.7-0.05,1.02l-0.01,0.12l1.99,0.2001L47.6745,48.8258z"/><path d="M41.1945,56.446c-0.5,0.3699-1.02,0.6899-1.55,0.96l0.9,1.78c0.63-0.3201,1.26-0.7001,1.84-1.1401L41.1945,56.446z"/><path d="M44.6545,52.2159l1.81,0.87c0.31-0.6499,0.5699-1.33,0.77-2.02l-1.92-0.5599   C45.1445,51.0858,44.9245,51.6659,44.6545,52.2159z"/><path d="M44.0045,56.6159c0.5-0.52,0.96-1.0801,1.37-1.6699l-1.64-1.1401c-0.35,0.51-0.75,0.98-1.17,1.42L44.0045,56.6159z"/><path d="M42.9645,40.2058c0.4,0.4601,0.7599,0.9601,1.08,1.4901l1.71-1.05c-0.38-0.6201-0.81-1.21-1.27-1.74L42.9645,40.2058z"/><path d="M44.8745,43.3358c0.24,0.5601,0.43,1.15,0.57,1.75l1.94-0.46c-0.16-0.7-0.38-1.39-0.66-2.05L44.8745,43.3358z"/><path d="M73.6445,8.9659c0.5-0.0599,0.99-0.11,1.49-0.15l-0.15-1.99c-0.53,0.04-1.06,0.0901-1.59,0.16l-0.46,0.0599l0.27,1.98   L73.6445,8.9659z"/><path d="M71.2945,9.3459l-0.39-1.96c-0.67,0.1299-1.34,0.28-2,0.4399l0.48,1.9399C70.0145,9.6159,70.6445,9.4759,71.2945,9.3459z"/><path d="M83.2244,7.3258c-0.67-0.1399-1.36-0.26-2.05-0.35l-0.26,1.99c0.64,0.08,1.28,0.1901,1.9,0.3199L83.2244,7.3258z"/><path d="M90.9445,10.3959c-0.58-0.3601-1.2-0.71-1.82-1.03l-0.9,1.79c0.57,0.29,1.13,0.6,1.66,0.9399L90.9445,10.3959z"/><path d="M87.2145,8.5158c-0.64-0.25-1.3-0.48-1.97-0.6799l-0.57,1.92c0.61,0.1801,1.22,0.39,1.81,0.62L87.2145,8.5158z"/><path d="M77.3245,8.7359c0.57,0,1.12,0.01,1.67,0.0499l0.12-2c-0.59-0.0399-1.18-0.0499-1.79-0.0499h-0.28l0.02,2H77.3245z"/><path d="M17.6645,65.4159c1.51,0.08,2.88,1.1399,3.6,2.76c3.3231,7.5842-8.9473,19.823,8.21,25.0399   c7.9689,2.42,18.6719,0.9108,26.73-1.2001c44.5214-11.7037,47.9069-63.188,33.16-75.3799c-4.1542-3.423-9.9697-4.394-15.22-3.7   c-5.23,0.6599-10.09,2.7-14.79,4.6699c-4.3822,1.7673-6.5652,3.4709-8.36,1.62c-2.8995-3.0109,0.9904-9.6608-0.46-15.22l-0.19-0.75   h-13.79c4.4452,31.004,2.29,25.8488,8.68,30.85c3.75,2.95,6.12,7.61,6.45,12.38c2.62,0.6,9.1,1.5499,15.34-1.77l0.94,1.76   c-5.0325,2.6865-11.0036,3.2111-16.26,2.0699c-0.02,0.23-0.03,0.4601-0.05,0.6901c-0.3701,3.6901-2.07,7.23-4.61,9.9601   c3.38,0.7599,8.88,2.73,12.58,7.7699l-1.61,1.1801c-3.86-5.27-10.11-6.8201-12.78-7.26c-0.9,0.72-1.87,1.36-2.9,1.8799   c-1.51,0.76-2.79,1.1301-3.91,1.1301c-2.4272,0-4.0167-1.8488-6.33-4.1901c-8.0313-7.973-21.2971-8.9202-30.49-0.7699l-0.82,0.72   l10.78,10.25C14.2846,66.9333,15.4982,65.3018,17.6645,65.4159z M47.3645,30.4558c-3.76-2.36-4.75-7.9301-4.91-12.1901l1.99-0.0698   c0.12,3.0898,0.8,8.5698,3.98,10.5698L47.3645,30.4558z M26.1745,61.0959l-1.51,1.3101c-3.47-4-8.5099-3.71-12.13-2.76l-0.5-1.9401   C18.0045,56.1459,22.8945,57.3158,26.1745,61.0959z"/><polygon points="10.0219,14.1615 12.0219,14.1615 12.0219,11.4482 14.7348,11.4482 14.7348,9.4482 12.0219,9.4482 12.0219,6.7353    10.0219,6.7353 10.0219,9.4482 7.3086,9.4482 7.3086,11.4482 10.0219,11.4482  "/><polygon points="12.0219,42.266 12.0219,40.2089 14.0791,40.2089 14.0791,38.2089 12.0219,38.2089 12.0219,36.1513    10.0219,36.1513 10.0219,38.2089 7.9643,38.2089 7.9643,40.2089 10.0219,40.2089 10.0219,42.266  "/><polygon points="28.666,26.9794 30.666,26.9794 30.666,24.9218 32.7236,24.9218 32.7236,22.9218 30.666,22.9218 30.666,20.8647    28.666,20.8647 28.666,22.9218 26.6089,22.9218 26.6089,24.9218 28.666,24.9218  "/><polygon points="78.3051,87.3178 78.3051,90.0312 75.5922,90.0312 75.5922,92.0312 78.3051,92.0312 78.3051,94.7441    80.3051,94.7441 80.3051,92.0312 83.0185,92.0312 83.0185,90.0312 80.3051,90.0312 80.3051,87.3178  "/><polygon points="91.8857,73.8144 91.8857,75.7646 89.9355,75.7646 89.9355,77.7646 91.8857,77.7646 91.8857,79.7148    93.8857,79.7148 93.8857,77.7646 95.8359,77.7646 95.8359,75.7646 93.8857,75.7646 93.8857,73.8144  "/></g></svg>