<svg xmlns="http://www.w3.org/2000/svg" xmlns:sodipodi="http://sodipodi.sourceforge.net/DTD/sodipodi-0.dtd" viewBox="0 0 100 100" x="0px" y="0px"><path d="m 80.399055,59.548582 c -1.118533,1.369807 0.835283,3.621548 0.189389,4.888833 -0.616535,1.20966 -3.188856,-0.14798 -3.162319,0.845712 0.03054,1.143505 3.396263,1.580651 2.23402,2.831857 -4.822785,5.191941 0.36426,6.130525 -2.907899,10.200164 -3.706301,4.609587 -9.400668,-2.225576 -12.406404,0.731368 C 62.276302,81.082468 63.085812,86.931526 62.597791,92.5 51.422088,89.309656 38.519275,90.247002 31.913644,84.557319 34.727512,73.644368 34.04859,66.593 29.499791,59.47921 24.979376,52.409814 18.348917,46.458825 18.465923,36.43887 18.710978,15.452865 35.895572,7.877665 52.764158,9.022233 c 15.767572,1.069861 29.241184,10.956218 28.704957,27.496621 -0.09833,3.032672 -2.421058,5.763176 -1.146602,8.382601 2.465526,5.067492 7.550296,10.430452 6.414928,13.072129 -1.355316,3.153447 -4.963637,-0.108553 -6.338386,1.574998 z" fill="#000000"/><path d="m 85.237362,27.856949 c 0.165001,2.203759 -1.132591,3.239303 -0.666808,4.730952 0.319991,1.024826 1.336414,1.823672 2.654785,1.395901 1.220465,-0.396004 1.662957,-1.668227 1.331627,-2.68937 -0.471769,-1.45397 -2.158522,-1.556921 -3.319604,-3.437483 z"/><path d="m 85.801699,38.684238 c 0.165,2.203759 -1.132592,3.239304 -0.666819,4.730956 0.319993,1.024824 1.336414,1.823672 2.654795,1.395897 1.220465,-0.396003 1.662948,-1.668224 1.331618,-2.689366 -0.471769,-1.453972 -2.158522,-1.556923 -3.319594,-3.437487 z"/><path d="m 91.574046,43.608162 c 0.165,2.20376 -1.132601,3.239307 -0.666818,4.730956 0.319992,1.024825 1.336414,1.823671 2.654795,1.395897 1.220456,-0.396001 1.662947,-1.668225 1.331618,-2.689368 -0.471772,-1.45397 -2.158521,-1.55692 -3.319595,-3.437485 z"/><path d="m 14.762637,31.641189 c -0.165,2.203759 1.132592,3.239303 0.666809,4.730953 -0.319992,1.024825 -1.336414,1.823671 -2.654785,1.3959 -1.220465,-0.396004 -1.662957,-1.668227 -1.331627,-2.68937 0.471769,-1.45397 2.158522,-1.556921 3.319603,-3.437483 z"/><path d="m 14.198301,42.468478 c -0.165,2.203759 1.132592,3.239304 0.666818,4.730956 -0.319992,1.024824 -1.336414,1.823672 -2.654794,1.395897 -1.220465,-0.396003 -1.662948,-1.668224 -1.331619,-2.689366 0.47177,-1.453972 2.158522,-1.556923 3.319595,-3.437487 z"/><path d="m 8.425954,47.392402 c -0.1650004,2.20376 1.1326013,3.239307 0.6668181,4.730956 C 8.7727796,53.148183 7.7563583,53.947029 6.4379764,53.519255 5.2175211,53.123254 4.77503,51.85103 5.1063591,50.829887 c 0.4717717,-1.45397 2.158521,-1.55692 3.3195949,-3.437485 z"/></svg>